<svg xmlns="http://www.w3.org/2000/svg" xmlns:xlink="http://www.w3.org/1999/xlink" width="163" height="122" viewBox="0 0 163 122">
	<defs>
		<clipPath id="clip-path">
			<rect id="Rectangle_28" data-name="Rectangle 28" width="163" height="122" transform="translate(196 362)" fill="#fff" stroke="#707070" stroke-width="1" />
		</clipPath>
	</defs>
	<g id="Mask_Group_1" data-name="Mask Group 1" transform="translate(-196 -362)" clip-path="url(#clip-path)">
		<g id="Layer_2" data-name="Layer 2" transform="translate(214 388.313)">
			<g id="Layer_1" data-name="Layer 1">
				<path id="Path_160" data-name="Path 160" d="M0,11.056C6.266,7.3,12.625,3.7,18.926,0c11.43,6.523,22.779,13.175,34.2,19.7-4.919,2.822-9.779,5.727-14.709,8.514-5.856-3.256-11.711-6.371-17.391-9.8-1.991-1.019-5-.059-5.434,2.342v26.76c.07,2.436,3.139,3.666,5.188,2.776C44.327,36.469,67.926,22.872,91.489,9.135,96.748,6.148,101.889,3,107.182,0c6.242,3.713,12.531,7.366,18.738,11.091V57.632a8.749,8.749,0,0,1-1.253.867c-5.856,3.361-11.711,6.875-17.649,10.189-11.337-6.465-22.7-13.082-34.057-19.628,4.884-2.846,9.744-5.727,14.674-8.5,5.8,3.209,11.629,6.289,17.3,9.8,2.049,1.171,5.317,0,5.528-2.495-.082-8.936,0-17.86,0-26.8-.375-2.331-3.256-3.4-5.223-2.541Q83.373,31.328,61.426,44C47.244,52.2,33.108,60.5,18.914,68.687c-6.031-3.5-12.086-7.1-18.129-10.634-.281-.234-.9-.328-.761-.832Q-.012,34.139,0,11.056m186.562,1.5a6.5,6.5,0,0,1,4.2-1.382H215.84a6.687,6.687,0,0,1,4.685,1.441A6.3,6.3,0,0,1,222.2,17.3q0,20.249,0,40.5h-9.369V20.483H194.186V57.8h-9.369v-40.8a6.008,6.008,0,0,1,1.71-4.485m111.5.07a6.5,6.5,0,0,1,4.392-1.464h25.133a6.465,6.465,0,0,1,4.685,1.546,6.394,6.394,0,0,1,1.558,4.685q0,20.249,0,40.5h-9.369V20.53H305.784V57.842h-9.369V17.028a6.067,6.067,0,0,1,1.628-4.4M164.111,57.842V11.208h9.369V57.842h-9.369m70.994-45.276a6.629,6.629,0,0,1,4.462-1.359H264.5v9.369H242.706v9.287h12.461l-3.127,9.369h-9.369V57.842H233.3V17.04a5.949,5.949,0,0,1,1.733-4.474M275.8,57.842V11.208h9.369V57.842H275.8m69.261,0V11.208h9.369V57.842h-9.369m20.647-46.635H399.92v9.369H387.506V57.842h-9.369V20.577H365.722V11.208m46.963,1.616a6.23,6.23,0,0,1,4.544-1.616h25.109v9.369H420.555v9.287h12.461c-1.042,3.127-2.085,6.242-3.127,9.369H420.52v9.252h21.818v9.369H416.924a5.481,5.481,0,0,1-4.849-2.471,9.744,9.744,0,0,1-.808-5.212V17.719a6.652,6.652,0,0,1,1.464-4.884m69.448-.176a6.418,6.418,0,0,1,4.38-1.429h25.1V20.6H489.875v9.287h12.461q-1.569,4.685-3.127,9.369h-9.369V57.866H480.47V17a5.985,5.985,0,0,1,1.64-4.357m40.849-1.429h9.369V48.532h21.795V57.9h-25.46a5.75,5.75,0,0,1-4.485-1.886,6.78,6.78,0,0,1-1.171-4.485q0-20.132,0-40.252M566.83,12.73a6.207,6.207,0,0,1,4.321-1.511H596.4v9.369H574.63v9.287h12.461l-3.127,9.369h-9.369V48.52h21.795v9.369H571.175a5.856,5.856,0,0,1-4.743-1.991,7.308,7.308,0,0,1-1.171-4.685q0-17.063,0-34.127a6.054,6.054,0,0,1,1.569-4.357m41.681.808A5.6,5.6,0,0,1,613.3,11.2h25.414v9.369h-21.76v9.287h12.461q-1.569,4.685-3.127,9.369h-9.369v9.264h21.795v9.369h-25.39a5.762,5.762,0,0,1-4.462-1.862,6.757,6.757,0,0,1-1.241-4.462c0-10.54,0-21.186,0-31.785,0-2.073-.269-4.333.914-6.172m41.587-2.342H684.33V20.6H671.916V57.866h-9.369V20.577H650.133V11.208Z" fill="#fff" />
			</g>
		</g>
	</g>
</svg>
