<svg xmlns="http://www.w3.org/2000/svg"
             width="18"
             height="20"
             viewBox="0 0 28 30"
             alt="close popup">
          <path d="M 4.71,3.29 C 4.71,3.29 3.29,4.71 3.29,4.71 3.29,4.71 10.59,12.00 10.59,12.00 10.59,12.00 3.29,19.29 3.29,19.29 3.29,19.29
    4.71,20.71 4.71,20.71 4.71,20.71 12.00,13.41 12.00,13.41 12.00,13.41 19.29,20.71 19.29,20.71 19.29,20.71 20.71,19.29 20.71,19.29 20.71,19.29 13.41,12.00 13.41,12.00 13.41,12.00 20.71,4.71 20.71,4.71 20.71,4.71 19.29,3.29 19.29,3.29 19.29,3.29 12.00,10.59 12.00,10.59 12.00,10.59 4.71,3.29 4.71,3.29 Z"
                stroke="white"
                stroke-width="1"
                fill="white"></path>
        </svg>

