<svg width="29" height="27" viewBox="0 0 29 27" xmlns="http://www.w3.org/2000/svg">
<path d="M26.799 9.66689C26.6365 9.66755 26.4759 9.63107 26.3297 9.56022L13.999 3.26689L1.66832 9.51756C1.40522 9.64203 1.10346 9.65689 0.829405 9.55888C0.555352 9.46086 0.331461 9.25798 0.206986 8.99489C0.0825112 8.7318 0.0676486 8.43003 0.165668 8.15598C0.263687 7.88192 0.466558 7.65803 0.729653 7.53356L13.999 0.962891L27.2683 7.53356C27.548 7.5989 27.7907 7.77179 27.9439 8.01479C28.097 8.25779 28.1483 8.55134 28.0866 8.83187C28.0249 9.1124 27.8551 9.35732 27.6141 9.51361C27.3731 9.6699 27.0803 9.72497 26.799 9.66689ZM8.66565 20.3336H2.26565V26.7336H8.66565V20.3336ZM17.199 20.3336H10.799V26.7336H17.199V20.3336ZM25.7323 20.3336H19.3323V26.7336H25.7323V20.3336ZM21.4657 11.8002H15.0657V18.2002H21.4657V11.8002ZM12.9323 11.8002H6.53232V18.2002H12.9323V11.8002Z" />
</svg>
